<?xml version="1.0" encoding="UTF-8"?>
<svg width="24px" height="33px" viewBox="0 0 24 33" version="1.1" xmlns="http://www.w3.org/2000/svg" xmlns:xlink="http://www.w3.org/1999/xlink">
    <!-- Generator: Sketch 49.1 (51147) - http://www.bohemiancoding.com/sketch -->
    <title>Icons/Map/Location</title>
    <desc>Created with Sketch.</desc>
    <defs></defs>
    <g id="Header-&amp;-Footer" stroke="none" stroke-width="1" fill="none" fill-rule="evenodd">
        <g id="B2B-PRO---Auth-Header-1440-(NEW)" transform="translate(-104.000000, -60.000000)" fill="#F96302" stroke="#FFFFFF" stroke-width="2">
            <g id="Group-6">
                <g id="_LocalStore" transform="translate(105.000000, 54.000000)">
                    <g id="Icons/L/location" transform="translate(0.000000, 7.000000)">
                        <path d="M0,10.5 C0,18.375 10.7130435,30 10.7130435,30 C10.7130435,30 21.426087,18.375 21.426087,10.5 C21.426087,4.695 16.6358261,0 10.7130435,0 C4.79026087,0 0,4.695 0,10.5 Z M10.7130435,14.25 C8.60104348,14.25 6.88695652,12.57 6.88695652,10.5 C6.88695652,8.43 8.60104348,6.75 10.7130435,6.75 C12.8250435,6.75 14.5391304,8.43 14.5391304,10.5 C14.5391304,12.57 12.8250435,14.25 10.7130435,14.25 L10.7130435,14.25 Z" id="Shape"></path>
                    </g>
                </g>
            </g>
        </g>
    </g>
</svg>