<?xml version="1.0" encoding="UTF-8"?>
<svg width="26px" height="27px" viewBox="0 0 26 27" version="1.1" xmlns="http://www.w3.org/2000/svg" xmlns:xlink="http://www.w3.org/1999/xlink">
    <!-- Generator: Sketch 49.1 (51147) - http://www.bohemiancoding.com/sketch -->
    <title>Imported Layers Copy 2</title>
    <desc>Created with Sketch.</desc>
    <defs></defs>
    <g id="Header-&amp;-Footer" stroke="none" stroke-width="1" fill="none" fill-rule="evenodd">
        <g id="B2B-PRO---Auth-Header-1440-(NEW)" transform="translate(-992.000000, -61.000000)" fill="#FFFFFF">
            <g id="Group-6">
                <g id="Group-3" transform="translate(377.000000, 55.000000)">
                    <g id="Group-5-Copy-10" transform="translate(15.000000, 0.750000)">
                        <path d="M615.745177,6 C613.093669,6 610.614246,7.00549691 608.765254,8.83068802 C606.916263,10.6558791 605.915787,13.0857299 605.949465,15.6729523 C605.971232,17.523371 606.526915,19.3157263 607.559015,20.8906443 L600,28.2610848 L603.303296,31.4817983 L610.889829,24.0857299 C612.460773,25.0243539 614.25473,25.530506 616.202291,25.5509283 C618.853799,25.5509283 621.333632,24.5474336 623.181802,22.7234438 C625.031615,20.8982526 626.03168,18.4663997 625.999235,15.877976 C625.933111,10.4985075 621.389488,6.06807426 615.745177,6 L615.745177,6 Z M615.800211,9.43654896 L615.800211,9.43775027 C619.39675,9.48019658 622.430213,12.3637423 622.470873,15.8671642 C622.493461,17.5373862 621.848245,19.1083 620.655559,20.2867856 C619.463695,21.4624682 617.86359,22.1123771 616.068812,22.1123771 L616.067169,22.1123771 C612.474326,22.071933 609.517254,19.1859847 609.47372,15.6825628 C609.451542,14.0103386 610.098401,12.4406261 611.291908,11.262541 C612.485415,10.0848562 614.086752,9.43654896 615.800211,9.43654896 L615.800211,9.43654896 Z" id="Imported-Layers-Copy-2"></path>
                    </g>
                </g>
            </g>
        </g>
    </g>
</svg>