<?xml version="1.0" encoding="UTF-8"?>
<svg width="55px" height="55px" viewBox="0 0 55 55" version="1.1" xmlns="http://www.w3.org/2000/svg" xmlns:xlink="http://www.w3.org/1999/xlink">
    <!-- Generator: Sketch 49.1 (51147) - http://www.bohemiancoding.com/sketch -->
    <title>THD-Logo-Orange</title>
    <desc>Created with Sketch.</desc>
    <defs></defs>
    <g id="Header-&amp;-Footer" stroke="none" stroke-width="1" fill="none" fill-rule="evenodd">
        <g id="B2B-PRO---Auth-Header-1440-(NEW)" transform="translate(-28.000000, -46.000000)">
            <g id="Group-6">
                <g id="THD-Logo-Orange" transform="translate(28.000000, 46.000000)">
                    <rect id="Rectangle-3" fill="#FFFFFF" x="0" y="0" width="55" height="55"></rect>
                    <g id="THD-Logo" transform="translate(1.718750, 1.718750)">
                        <g id="Flat-Logo-Copy-9">
                            <polygon id="Fill-1" fill="#FFFFFF" points="0.0714349429 0.0675788215 51.9909498 0.0675788215 51.9909498 51.8730241 0.0714349429 51.8730241"></polygon>
                            <path d="M0.0714349429,0.0675788215 L32.6472789,0.0675788215 C35.2696712,0.0675788215 37.892293,0.0620850641 40.5091795,0.0728436723 C39.7840127,0.807175907 39.0423283,1.53624329 38.3121144,2.27080443 C38.6007129,2.57525015 38.9060584,2.85817866 39.1951157,3.15735953 C39.8604064,2.70046204 40.6126437,2.3360428 41.4304924,2.27606928 C42.1664416,2.1998434 42.908126,2.39029365 43.5839696,2.68420967 C43.8402212,2.79294029 44.0801847,2.96690927 44.3690126,2.99414915 C44.6525641,2.97789679 44.8652277,2.72770192 44.9634154,2.47727815 C45.0450856,2.30353807 44.9686918,2.09660654 44.8326514,1.97139466 C44.2001664,1.33503443 43.5621756,0.709432807 42.9351964,0.0728436723 C45.9556162,0.0565913068 48.9760359,0.0728436723 51.9911792,0.0675788215 C51.9911792,3.00513667 51.9964556,5.94818827 51.9911792,8.89123987 C51.3697059,8.28211952 50.7642914,7.66178275 50.1480946,7.05266241 C49.9845248,6.88372937 49.7177203,6.79674488 49.494045,6.90021064 C49.3467634,6.97094277 49.2049877,7.08516714 49.1396057,7.24288376 C49.0577061,7.5585459 49.1997112,7.86848538 49.3249694,8.15118497 C49.7067086,8.95647824 49.8757842,9.86500836 49.7613083,10.7517924 C49.6849146,11.3556479 49.4667451,11.9485158 49.1396057,12.4653869 C49.0524296,12.5903698 48.9707595,12.7208466 48.8943657,12.8517811 C49.2104935,13.1234932 49.4777569,13.449914 49.7993905,13.7165901 C50.5190515,12.9767641 51.2605065,12.2531905 51.9911792,11.5186293 C51.9911792,16.430964 51.9964556,21.3435277 51.9911792,26.2558624 C51.849174,26.3048484 51.6911102,26.4028204 51.5438286,26.3318594 C51.3476825,26.2068764 51.2004009,26.0219199 51.0368312,25.8642033 C49.2703697,24.1123814 47.5201963,22.3443071 45.7484584,20.5982079 C45.0450856,21.3000354 44.3529538,22.0071278 43.6383399,22.6927029 C44.0148026,23.1168668 44.434624,23.4922735 44.8271455,23.900185 C46.2446735,25.3148275 47.6619721,26.7292411 49.0852353,28.1434258 C49.2049877,28.2686377 49.3467634,28.3775973 49.4121454,28.5408076 C49.4339394,28.7202704 49.3086813,28.8724932 49.2595874,29.0357036 C49.1886995,29.2261539 49.341487,29.4546026 49.5431389,29.4598675 C49.7229968,29.49283 49.8757842,29.372883 49.9902601,29.2533937 C50.6553214,28.584071 51.3258885,27.9204709 51.9911792,27.2566418 L51.9911792,51.8730241 L27.3150887,51.8730241 C27.9475737,51.2421576 28.5800586,50.6163271 29.2125436,49.9852317 C27.0590665,47.8419796 24.9108658,45.6984986 22.7626651,43.5497528 C22.0595217,44.2243404 21.3834487,44.9261679 20.6855817,45.6060204 C20.5383001,45.7584721 20.3747303,45.9052012 20.3040719,46.1119038 C20.2712662,46.3131127 20.4566299,46.503563 20.652776,46.5145505 C20.8273574,46.4928044 20.9744096,46.3783511 21.148991,46.3403526 C21.3015491,46.3298229 21.4217602,46.4493121 21.5305008,46.5472841 C22.8064825,47.8309921 24.0877406,49.1041704 25.3689987,50.3826135 C25.6904029,50.7195639 26.0395659,51.0242386 26.3391761,51.3726343 C26.4756754,51.5248572 26.3829935,51.7205723 26.3065998,51.8730241 L11.5481582,51.8730241 C12.7092051,50.7142991 13.8707109,49.5555741 15.0317579,48.3968491 C15.2496979,48.1901465 15.4733732,47.9509391 15.5059495,47.635277 C15.5550434,47.2708577 15.1845453,46.9062096 14.8190943,46.9824355 C14.5137488,47.0421801 14.2632324,47.2816163 13.9468752,47.2816163 C13.7452233,47.265364 13.5924359,47.118406 13.456166,46.9879292 C10.6809862,44.2243404 7.91154161,41.4554867 5.14186764,38.6916689 C4.95650389,38.5069413 4.73305798,38.3274786 4.66744656,38.0605735 C4.65666426,37.7453692 4.88011017,37.4894517 4.96200974,37.2012583 C5.06547392,36.8368391 4.72204628,36.4394573 4.35108936,36.4669261 C4.09506715,36.4831784 3.86611539,36.6299075 3.69176335,36.8095992 C2.49217541,38.0228039 1.27102288,39.2195274 0.0714349429,40.4327322 C0.0659290889,26.9792071 0.0714349429,13.520875 0.0714349429,0.0675788215" id="Fill-3" fill="#F96302"></path>
                            <path d="M37.5213361,3.05412267 C37.57043,2.99987182 37.657606,2.95065691 37.7066999,3.03237655 C41.5066567,6.818491 45.306843,10.6103281 49.1015235,14.4019363 C47.7711715,15.7293654 46.4355431,17.0620594 45.1051911,18.3949823 C44.9306097,18.5581927 44.7179461,18.6941632 44.478212,18.7104155 C44.1455667,18.7378843 43.8129213,18.4384745 43.8402212,18.1010663 C43.8512329,17.7693807 44.134555,17.5136921 44.1400608,17.1762838 C44.1510725,16.9640874 43.9875028,16.8065997 43.8512329,16.6594128 C41.0324651,13.8525606 38.2192031,11.0402146 35.4004353,8.22741086 C35.2423714,8.075188 35.0680193,7.88473774 34.8280559,7.90121901 C34.4736165,7.90648386 34.2065826,8.23290461 33.8468668,8.19490613 C33.6394796,8.20017098 33.470404,8.0369606 33.3669399,7.86848538 C33.2251641,7.57479826 33.3559282,7.22113763 33.5688212,7.0036764 C34.8881614,5.68700589 36.2075017,4.37056428 37.5213361,3.05412267" id="Fill-4" fill="#FFFFFF"></path>
                            <path d="M42.995302,4.1583679 C43.104272,3.95715904 43.3114298,3.77220254 43.5566697,3.80470727 C43.8292095,3.8266823 44.0255849,4.04940838 44.2054428,4.22910003 C45.2960608,5.32258665 46.3864492,6.41057951 47.4768377,7.49857238 C47.6839955,7.70001015 47.9292354,7.89572526 47.9783293,8.19490613 C48.0056291,8.5048456 47.7220777,8.78228035 47.422238,8.81501399 C47.1714923,8.82050775 46.9425405,8.68453725 46.7246004,8.56481912 C46.2609617,8.29287813 45.7376761,8.075188 45.1868613,8.10242788 C44.9033098,8.09693412 44.6309995,8.21115849 44.3745184,8.32538286 C44.0746788,8.00445587 43.7312512,7.71626251 43.4476997,7.38434801 C43.5348757,7.1396469 43.6493516,6.9057044 43.6658691,6.64429311 C43.7041807,6.05165403 43.4642172,5.48579702 43.1641482,4.99067214 C43.0115902,4.74597103 42.8916084,4.4410675 42.995302,4.1583679" id="Fill-5" fill="#FFFFFF"></path>
                            <path d="M18.9679846,7.04167489 C19.557111,6.42156703 20.1785843,5.83945765 20.7672518,5.22461464 C21.3288489,5.76849662 21.8739285,6.31810127 22.4247433,6.867477 C22.6046012,7.04167489 22.4410315,7.335362 22.2393795,7.40609413 C22.0703039,7.42784025 21.9230224,7.31361588 21.7704643,7.25913612 C21.1817968,6.97094277 20.4511241,6.93843803 19.8624565,7.25387127 C19.7096691,7.31910964 19.5841815,7.44958638 19.4206117,7.47682626 C19.257042,7.34634952 19.1207721,7.18313914 18.9679846,7.04167489" id="Fill-6" fill="#FFFFFF"></path>
                            <path d="M18.5974865,7.38961286 C19.3988177,8.16217249 20.1730784,8.961972 20.9636273,9.73979648 C22.2012974,10.9692536 23.4332322,12.2096982 24.6764082,13.4391553 C23.9675295,14.1572352 23.2533743,14.8645565 22.5392192,15.5716488 C22.3919376,15.7346303 22.0976038,15.8055913 21.9558281,15.6041536 C21.781476,15.4191971 21.9721162,15.1907483 22.0267159,15.0002981 C22.092098,14.8588338 21.9778515,14.7338508 21.8849402,14.6361077 C20.4566299,13.2159715 19.0333667,11.7960641 17.6105622,10.3708919 C17.4797982,10.2511737 17.3705988,10.1044446 17.2125349,10.022725 C16.9945948,9.97373898 16.8255192,10.169683 16.6128556,10.1806705 C16.4492859,10.1641892 16.2967278,10.0012078 16.3185218,9.83227473 C16.3293041,9.70179799 16.4056978,9.58757362 16.4983797,9.49509537 C17.1962467,8.79326787 17.9051254,8.10242788 18.5974865,7.38961286" id="Fill-7" fill="#FFFFFF"></path>
                            <path d="M21.4433248,8.26014449 C21.3726664,8.08068175 21.4979245,7.86322052 21.6887941,7.83598064 C21.8305699,7.81423452 21.9450458,7.92273623 22.0432335,8.01544338 C22.6319011,8.60281761 23.2205686,9.1959145 23.8149714,9.77802387 C23.9184356,9.89224825 24.0657172,9.9954851 24.0767289,10.1641892 C24.0985229,10.3328934 23.9349532,10.4961037 23.7606011,10.4796225 C23.5314199,10.4796225 23.3570679,10.3001597 23.1499102,10.2239338 C22.8445647,10.0826985 22.4738372,10.071711 22.1739975,10.2349214 C22.0159336,10.0772047 21.8576403,9.91399437 21.6940706,9.76703636 C21.7651879,9.5276001 21.8305699,9.27214038 21.7704643,9.02171661 C21.7268763,8.73901701 21.5305008,8.52132688 21.4433248,8.26014449" id="Fill-8" fill="#FFFFFF"></path>
                            <path d="M31.8840299,8.68453725 C32.0313114,8.53757924 32.2164458,8.42884863 32.423833,8.40160875 C32.7888252,8.34735789 33.1705644,8.70078962 33.0999059,9.07070261 C33.0508121,9.39712336 32.7782723,9.65807684 32.7998369,10.0012078 C32.8544366,10.2401862 33.0508121,10.4033966 33.2086466,10.5723296 C35.9948381,13.3466771 38.7808002,16.1155308 41.5557506,18.895372 C41.7085381,19.0315714 41.8610961,19.2110342 42.0792656,19.2110342 C42.4064051,19.2110342 42.6571508,18.9663331 42.9680022,18.9116244 C43.327718,18.8521087 43.6821573,19.2055404 43.6383399,19.5646948 C43.6167753,19.8093959 43.4694937,20.0215923 43.3006475,20.1900675 C41.8991783,21.582735 40.5034443,22.98639 39.1024338,24.3790575 C38.9225759,24.5585203 38.6936242,24.7217306 38.4265903,24.7217306 C38.1317977,24.737983 37.8484756,24.488017 37.8103934,24.1995948 C37.7720819,23.8186943 38.1265212,23.5357658 38.1155095,23.1548652 C38.0992214,22.9754025 37.9739632,22.8286734 37.8539814,22.6979678 C35.4059411,20.2610286 32.9634066,17.8183667 30.5155957,15.3811986 C32.5383088,19.1293145 34.5773101,22.8669008 36.6000232,26.6150168 C36.6325995,26.6692676 36.6598994,26.7292411 36.6871992,26.7944795 C36.540147,26.9302211 36.3983713,27.0771791 36.2565956,27.2241371 C32.2056635,25.2333368 28.1602373,23.2201036 24.1148111,21.2238095 C23.4770496,20.9083763 22.8445647,20.5384633 22.1249037,20.4514788 C21.8849402,20.4185163 21.7213705,20.6146892 21.5470184,20.7396722 C21.3669311,20.8811364 21.1269676,20.9681209 20.9037511,20.8973888 C20.6364878,20.7778996 20.4511241,20.4622374 20.5330236,20.1738152 C20.5873939,19.9781001 20.7236638,19.8148897 20.8654396,19.6731965 C22.1739975,18.3732362 23.4770496,17.0677821 24.7856076,15.7728577 C26.8243795,16.7683723 28.8688866,17.7421408 30.9136231,18.7378843 C30.9790051,18.7866414 31.0496636,18.8356274 31.1097691,18.9008658 C31.1425749,18.8626384 31.1698747,18.8246399 31.202451,18.7866414 L31.1260573,18.7974 C30.0521864,16.7573848 28.9237157,14.7446094 27.8493859,12.7045942 C29.2015319,11.3664065 30.5373897,10.022725 31.8840299,8.68453725" id="Fill-9" fill="#FFFFFF"></path>
                            <path d="M24.725502,9.60382598 C24.8236898,9.42436324 25.1017354,9.40261712 25.2324994,9.55483998 C25.7830848,10.1097095 26.3449113,10.664579 26.9007732,11.2196774 C26.2792999,11.8450501 25.6575972,12.4653869 25.0255711,13.0854947 C24.8837953,12.9222843 24.6926963,12.7918076 24.5837263,12.6013573 C24.7635842,12.2966827 24.9544538,11.9865143 25.0035477,11.6275889 C25.0962295,11.132464 25.0145594,10.6103281 24.8018958,10.1534306 C24.7417902,9.97923274 24.6110262,9.77802387 24.725502,9.60382598" id="Fill-10" fill="#FFFFFF"></path>
                            <path d="M15.571561,10.4198779 C15.680531,10.3056535 15.8005127,10.1859354 15.9585766,10.1479369 C16.1168699,10.1154321 16.313016,10.2131752 16.33481,10.3871442 C16.3731215,10.5775945 16.2313458,10.73554 16.1932636,10.9202676 C16.1712402,11.0672256 16.291222,11.1706914 16.378398,11.2686634 C17.8342375,12.7208466 19.2843418,14.1734876 20.7401814,15.6204059 C20.8383691,15.7131131 20.9418333,15.8273375 21.083609,15.8598422 C21.2579611,15.8435898 21.4050133,15.7293654 21.5743183,15.691367 C21.781476,15.6693919 21.9721162,15.8925758 21.9067342,16.0882909 C21.8796638,16.2352489 21.7651879,16.3442085 21.6670001,16.4474453 C20.9581214,17.1547666 20.2492427,17.8618589 19.5405935,18.5636864 C19.4153353,18.6888983 19.2517655,18.8193751 19.0661724,18.7758828 C18.9627082,18.7321617 18.8755322,18.6506709 18.8372206,18.5474341 C18.7828503,18.3079978 19.0391019,18.1120538 18.9789963,17.8726175 C18.924626,17.7803682 18.8482323,17.7094072 18.7773444,17.6334102 C18.1122832,16.9750749 17.4524983,16.3059811 16.7819312,15.6478747 C16.5474736,15.8870821 16.313016,16.1210246 16.0730525,16.3549671 C15.9094828,16.1972504 15.745913,16.0393049 15.593355,15.8708297 C15.833089,15.6368872 16.0677761,15.3976798 16.3077395,15.1635084 C15.7186131,14.5871217 15.135222,13.9992897 14.5520603,13.4171803 C14.4265727,13.2976911 14.3176027,13.1672144 14.1703211,13.0802299 C13.9032872,12.9930165 13.6470356,13.3684232 13.390784,13.1617206 C13.1833968,13.0149915 13.2490082,12.7208466 13.4180838,12.5686237 C14.132239,11.8450501 14.8571764,11.1379577 15.571561,10.4198779" id="Fill-11" fill="#FFFFFF"></path>
                            <path d="M12.780093,13.2434402 C12.9438921,13.1397456 13.1891321,13.2052128 13.2652964,13.3901693 C13.3416901,13.6131243 13.1400382,13.8035746 13.1345323,14.0212647 C13.1290265,14.1354891 13.2217084,14.2169798 13.2925962,14.2932057 C14.8028061,15.8003265 16.3077395,17.3069894 17.8179494,18.8083875 C18.0902597,19.1020747 18.4394227,18.5961912 18.7337564,18.8138813 C18.924626,18.9663331 18.859244,19.265285 18.6956743,19.4067493 C17.9867956,20.1195643 17.2726404,20.8211629 16.5692676,21.533749 C16.4547917,21.6427085 16.3403158,21.7731853 16.1822519,21.8221713 C16.0076705,21.8711573 15.7950069,21.7621978 15.7734423,21.5774702 C15.7406366,21.3600089 15.937012,21.1910759 15.9260003,20.9788795 C15.898471,20.8864013 15.8388243,20.8104043 15.7734423,20.7396722 C14.3449026,19.3199937 12.9163629,17.8945926 11.493329,16.4691914 C11.3572886,16.3442085 11.2428127,16.1862629 11.0627254,16.1210246 C10.8665793,16.110266 10.7030096,16.257224 10.51214,16.2787412 C10.3485702,16.2842349 10.2067945,16.1372769 10.2012886,15.9797892 C10.1850005,15.8108562 10.3049822,15.6751146 10.4194581,15.5608902 C11.1281074,14.853569 11.8367567,14.1462477 12.5403589,13.4391553 C12.6165232,13.3684232 12.6874111,13.2976911 12.780093,13.2434402" id="Fill-12" fill="#FFFFFF"></path>
                            <path d="M8.83836036,17.1330205 C9.16549985,16.8173583 9.48162763,16.4909376 9.80876713,16.1700106 C10.3813759,16.725109 10.9427436,17.3014957 11.5153524,17.8618589 C11.6135402,17.9705895 11.7332925,18.0685616 11.7876628,18.2100258 C11.8532742,18.4767019 11.5481582,18.7703891 11.2808948,18.6506709 C11.0136315,18.5309528 10.8011973,18.3187564 10.5447163,18.1772922 C10.1141126,17.9108449 9.61239167,17.7421408 9.10011784,17.8021143 C8.95283624,17.6498915 8.7892665,17.5081983 8.65850246,17.3452168 C8.70186106,17.2580034 8.77297834,17.1982588 8.83836036,17.1330205" id="Fill-13" fill="#FFFFFF"></path>
                            <path d="M6.4612079,19.5047213 C7.07189887,18.9063596 7.67157814,18.3025041 8.27676325,17.6986486 C9.42175147,18.8466149 10.5720161,19.9943524 11.7222808,21.136825 C12.3547658,21.7621978 12.9709626,22.3990158 13.608724,23.0136299 C13.7888113,23.2148388 14.0285454,23.0463635 14.2249208,22.9754025 C14.4210669,22.888418 14.6502481,23.0626159 14.6447422,23.2690896 C14.6447422,23.4105539 14.5628426,23.530272 14.4703902,23.6284729 C13.7289352,24.3628051 12.9982625,25.0971374 12.2623133,25.8316985 C12.1586197,25.9349354 12.0276263,26.0381722 11.8750682,26.0274136 C11.7059926,26.0438949 11.5424229,25.8806845 11.558711,25.7172452 C11.5697228,25.5432763 11.7059926,25.401812 11.7059926,25.2276141 C11.7170044,25.0806561 11.5915168,24.9881779 11.5043407,24.8902059 C9.76517911,23.1658528 8.04230564,21.4252473 6.29763816,19.7059302 C6.35223788,19.635198 6.40133174,19.5699597 6.4612079,19.5047213" id="Fill-14" fill="#FFFFFF"></path>
                            <path d="M47.37865,18.9715979 C48.0544936,19.635198 48.7252901,20.3042919 49.3905808,20.9788795 C49.603015,21.1803173 49.450457,21.582735 49.1669055,21.6264562 C48.905148,21.6644547 48.7034961,21.457752 48.5018442,21.3217815 C47.9620411,20.9516396 47.3240503,20.6037017 46.6482067,20.717926 C46.4681194,20.5547157 46.2937674,20.3860115 46.1464858,20.1957902 C46.5663071,19.7931436 46.9698404,19.3795094 47.37865,18.9715979" id="Fill-15" fill="#FFFFFF"></path>
                            <path d="M5.90511665,20.0758431 C6.10699796,20.152069 6.23225614,20.3805178 6.39582589,20.521982 C6.30864986,21.1530774 6.60826009,21.7459454 6.96269944,22.2410703 C7.06639302,22.3990158 7.1916512,22.5457449 7.25703321,22.7252076 C7.32815049,22.9646439 7.09369288,23.2148388 6.85372941,23.1875989 C6.71745952,23.1875989 6.62477765,23.0733745 6.53760163,22.9918838 C5.94319881,22.3932931 5.34374895,21.8059189 4.74934613,21.2075572 C5.14186764,20.8374153 5.5073187,20.4404913 5.90511665,20.0758431" id="Fill-16" fill="#FFFFFF"></path>
                            <path d="M18.0358894,23.1443355 C19.1207721,22.7959398 20.2983366,22.7579413 21.416025,22.98639 C23.3134799,23.3890367 24.992536,24.4987756 26.3338996,25.8749619 C27.647734,27.202391 28.6945345,28.8672284 29.0489739,30.7220582 C29.2451199,31.7393189 29.2015319,32.8055657 28.9074275,33.8010803 C28.6183702,34.7858363 28.0946258,35.6943664 27.4350704,36.4776847 C27.1515189,36.1785038 26.840897,35.9010691 26.5681278,35.5963944 C26.5681278,35.4494364 26.6608097,35.3242245 26.688339,35.1829892 C26.8353912,34.7043456 26.688339,34.1657284 26.3228879,33.8173327 C23.6298371,31.1247048 20.9255451,28.4318481 18.2320355,25.7389914 C17.9867956,25.4887965 17.6761736,25.2875876 17.3217343,25.2603478 C17.032677,25.2223493 16.7491255,25.3255861 16.4765857,25.4233292 C16.3673863,25.4833027 16.2967278,25.3475612 16.2258399,25.2928525 C16.0076705,25.0591389 15.767707,24.8469425 15.549767,24.6075063 C15.549767,24.5912539 15.5442611,24.5585203 15.5442611,24.5422679 C16.269428,23.92216 17.1200824,23.4380227 18.0358894,23.1443355" id="Fill-17" fill="#FFFFFF"></path>
                            <path d="M25.3852869,22.8449258 C25.6360326,22.9264165 25.8649844,23.0516284 26.099442,23.1713465 C26.9773963,23.5957393 27.8493859,24.0363844 28.7328461,24.466042 C28.8090104,24.5042694 28.8798983,24.564014 28.9455097,24.6237586 C29.6867353,25.3745721 30.4339256,26.1143981 31.180657,26.8597179 C31.5841902,27.2896044 32.0909582,27.62129 32.641773,27.8279926 C33.0287887,27.9749506 33.4651276,27.9749506 33.8521432,27.8387512 C34.0485187,27.7735128 34.2611823,27.6975159 34.4683401,27.7627542 C34.6754978,27.8444739 34.8280559,28.0511765 34.844344,28.2741315 C34.8280559,28.5733124 34.6371863,28.8235072 34.4355344,29.0302098 C33.7704731,29.7047975 33.0941707,30.3741202 32.4183271,31.0377203 C32.2384692,31.2009307 32.0313114,31.3694059 31.7803363,31.3966458 C31.4206205,31.4508967 31.0661811,31.070454 31.1751512,30.7220582 C31.2788447,30.3683976 31.4206205,30.0094721 31.3607443,29.6395591 C31.2733389,29.0192223 30.9188995,28.4698466 30.526378,27.9966967 C29.0489739,26.5170448 27.5660639,25.0426576 26.0831539,23.5575119 C25.8539727,23.3180756 25.6032269,23.1006144 25.3852869,22.8449258" id="Fill-18" fill="#FFFFFF"></path>
                            <path d="M42.0136541,24.3245778 C42.4229226,23.9166663 42.8370087,23.5085259 43.2460478,23.0953495 C43.4259057,23.2420786 43.5839696,23.4162765 43.7530452,23.5794869 C43.6821573,24.1233689 43.8677505,24.6617571 44.1510725,25.1188835 C44.2981247,25.3800659 44.5107883,25.6030209 44.6417818,25.8749619 C44.7126696,26.0056675 44.6635758,26.1523966 44.6144819,26.2828733 C45.3015666,26.7454935 45.9065223,27.3328677 46.3864492,28.0019616 C46.9370346,28.780015 47.3240503,29.7047975 47.3022563,30.6730722 C47.3077622,31.5925898 46.9097348,32.4736512 46.3263437,33.1699849 C46.1682798,33.0067746 45.982916,32.8600454 45.8464167,32.675089 C45.873946,32.4736512 45.9719043,32.2779361 45.9228105,32.0767272 C45.8684402,31.8155448 45.6665588,31.6305883 45.4867009,31.4508967 C44.0476084,30.0202307 42.6135628,28.5897936 41.1797467,27.1588987 C41.0379709,27.0174345 40.8688953,26.8869578 40.667014,26.8707054 C40.4763738,26.8487304 40.2855042,26.9032101 40.1111522,26.9629547 C39.9420766,26.805467 39.7732304,26.636534 39.6096606,26.4733236 C40.3345981,25.8532157 41.277705,25.4560629 42.2428353,25.5050489 C42.6135628,25.4942903 42.973508,25.5812748 43.3332238,25.6627655 C42.8971143,25.2113618 42.4334755,24.786969 42.0136541,24.3245778" id="Fill-19" fill="#FFFFFF"></path>
                            <path d="M13.4834658,27.5178242 C13.7833055,26.68552 14.2574971,25.9239479 14.8190943,25.2438665 C15.0971399,25.5270239 15.3917031,25.798736 15.6642428,26.0871582 C15.7186131,26.2613561 15.5770668,26.4245665 15.549767,26.5985355 C15.4079912,27.0664205 15.593355,27.5777977 15.937012,27.9149771 C18.5864748,30.5643416 21.2416729,33.2082123 23.896871,35.8573479 C24.1531226,36.1350116 24.4637446,36.395965 24.8562661,36.4559386 C25.2051996,36.5104183 25.5488566,36.3907002 25.8704903,36.2709821 C26.164824,36.5646692 26.4593872,36.8530914 26.753721,37.1467785 C26.1102243,37.7071418 25.3632635,38.1477869 24.5674381,38.4579553 C23.3678502,38.9201176 22.0267159,38.9963435 20.7672518,38.7191377 C18.8535088,38.3000098 17.1689468,37.1522723 15.8223067,35.754111 C14.5793602,34.4541507 13.5759183,32.8600454 13.2217084,31.0809837 C12.9819743,29.9007415 13.058368,28.6495382 13.4834658,27.5178242" id="Fill-20" fill="#FFFFFF"></path>
                            <path d="M38.2627911,29.0901834 C38.3284025,28.2633729 38.6936242,27.4745609 39.2389331,26.8542241 C39.3967676,27.0174345 39.5660726,27.1806449 39.729413,27.3438552 C39.6695368,27.5397993 39.5766255,27.7465019 39.6314546,27.9529756 C39.6640309,28.138161 39.7892891,28.285119 39.9202826,28.4155957 C41.3596046,29.8462617 42.7879148,31.2824215 44.2274663,32.7130874 C44.3963124,32.8762978 44.5598822,33.0722418 44.7998457,33.1374802 C45.0180151,33.1974537 45.241461,33.1209989 45.4538952,33.0557606 C45.6176944,33.2191998 45.78677,33.3824102 45.9448339,33.5563792 C45.2577492,34.1220073 44.4018183,34.5193891 43.4967936,34.5193891 C42.6190687,34.5573876 41.7576319,34.2472192 41.0271886,33.7903217 C40.4981678,33.4531423 40.0129644,33.0450019 39.6096606,32.5716232 C39.8003008,33.2082123 39.7569422,33.9210273 39.4568732,34.5193891 C39.1625394,35.1067633 38.7046359,35.5856358 38.2520088,36.0480271 C38.0884391,35.8848167 37.9193635,35.7158837 37.7502879,35.5529022 C37.892293,35.3242245 37.9849749,35.0522835 37.8975695,34.7858363 C37.7941053,34.5136664 37.57043,34.3179513 37.3742839,34.1112487 C36.9707507,33.7031083 36.561941,33.2951968 36.152902,32.8872853 C35.9131679,32.6641014 35.6566869,32.4084128 35.3132592,32.3866667 C35.1116073,32.3651495 34.9317494,32.4683863 34.7626738,32.5663583 C34.5938277,32.403148 34.4302579,32.2344438 34.2611823,32.0714624 C34.9152319,31.4131271 35.6621927,30.7330457 36.6218172,30.6133276 C37.4068602,30.4826219 38.1974091,30.8200302 38.7535003,31.3586473 C38.4045668,30.6623136 38.1866268,29.8787665 38.2627911,29.0901834" id="Fill-21" fill="#FFFFFF"></path>
                            <path d="M9.52521564,30.9887343 C9.68878539,30.8310177 9.901449,30.7112996 10.1304008,30.6950472 C10.5066341,30.6730722 10.8502912,31.0647313 10.7463682,31.4293795 C10.664698,31.7068142 10.4630461,31.9515153 10.4520344,32.2509251 C10.4738284,32.5118786 10.6919979,32.6968351 10.8665793,32.871033 C13.6633237,35.6616328 16.465574,38.4579553 19.2625478,41.2485551 C19.3935413,41.373767 19.5405935,41.49875 19.7259572,41.5150024 C20.042085,41.5150024 20.2875543,41.2812888 20.5873939,41.2105566 C20.9471097,41.1398245 21.3070549,41.4662453 21.2907668,41.8251708 C21.2797551,42.0701008 21.1434852,42.2930558 20.9744096,42.4670247 C19.5678933,43.8706797 18.1556418,45.2798285 16.7491255,46.6832546 C16.5637617,46.8627173 16.33481,47.020434 16.0677761,47.020434 C15.7406366,47.0314215 15.4352911,46.721482 15.4623615,46.3893386 C15.4953966,46.0631467 15.767707,45.8019644 15.7734423,45.4645561 C15.7624306,45.2633472 15.6041373,45.1108955 15.4788791,44.9696601 C14.2249208,43.7129631 12.9654567,42.4670247 11.7170044,41.2160504 C11.6679105,41.1780519 11.6025285,41.0690924 11.5316406,41.1450894 C11.0955311,41.5639884 10.6757097,42.0048624 10.2393708,42.4235325 C9.94503701,42.1298454 9.65070323,41.8361583 9.35614005,41.5369774 C9.77596141,41.0963323 10.2120709,40.6664458 10.6536863,40.2422819 C10.6536863,40.2203069 10.6594216,40.1715498 10.6594216,40.1495748 C9.47612178,38.9910787 8.31484541,37.8158724 7.13728089,36.6463888 C6.95742299,36.4776847 6.78811798,36.2657172 6.53760163,36.2057437 C6.19417398,36.1837687 5.92691066,36.4504448 5.60527702,36.5104183 C5.19096151,36.5811504 4.81472815,36.1132654 4.95650389,35.7268712 C5.02739176,35.4549302 5.24533181,35.2589862 5.43620142,35.0742586 C6.79912969,33.708831 8.16756382,32.354162 9.52521564,30.9887343" id="Fill-22" fill="#FFFFFF"></path>
                            <path d="M33.8684314,32.4576277 C34.5227104,33.0667481 35.1389072,33.7195896 35.7821745,34.3451912 C37.0035564,35.5691545 38.2302148,36.7931179 39.4568732,38.0170813 C39.5440492,38.0880423 39.6257194,38.1857854 39.7401953,38.2075315 C39.9748823,38.2295066 40.1600166,38.0008289 40.3947037,38.0443211 C40.5364794,38.0933072 40.667014,38.2295066 40.6509553,38.3869943 C40.6509553,38.5991906 40.470868,38.7461487 40.3398745,38.8876129 C39.5713491,39.6439202 38.8133765,40.4107571 38.0448511,41.1670644 C37.8757755,41.3520209 37.5594183,41.2595426 37.4559541,41.05284 C37.303396,40.7971514 37.7177116,40.5249815 37.4997715,40.2912679 C35.9184444,38.7191377 34.3373466,37.1412848 32.7617547,35.5636608 C32.6472789,35.4604239 32.5493205,35.3299472 32.4128212,35.2589862 C32.1783636,35.1937478 31.9929999,35.3896918 31.7750598,35.4169317 C31.6059842,35.4006793 31.4424145,35.2537213 31.4531968,35.0795234 C31.4369086,34.8890732 31.5786844,34.742573 31.6984367,34.6173611 C32.423833,33.8990523 33.1489998,33.1757076 33.8684314,32.4576277" id="Fill-23" fill="#FFFFFF"></path>
                            <path d="M29.0053859,37.3047241 C29.6539296,36.6681349 30.2864146,36.0100286 30.9461994,35.3841981 C31.5295905,35.9718012 32.1184875,36.5539106 32.7018786,37.1412848 C32.8980246,37.331735 32.6908669,37.6201573 32.489215,37.7071418 C32.3474392,37.7233942 32.2164458,37.6364097 32.0909582,37.5821588 C31.5896961,37.3369999 31.0115814,37.2175107 30.460996,37.3589749 C30.1120625,37.429707 29.806717,37.6254222 29.5013715,37.8048849 C29.3378018,37.6364097 29.1744615,37.4679344 29.0053859,37.3047241" id="Fill-24" fill="#FFFFFF"></path>
                            <path d="M26.3554642,39.9538596 C27.1081603,39.1922875 27.8714094,38.4469678 28.6236467,37.6906605 C29.8447992,38.8931067 31.0496636,40.11707 32.2765514,41.3192873 C33.2143818,42.2495635 34.1412006,43.1908273 35.0843075,44.1156098 C34.3538642,44.8661944 33.6016269,45.5952617 32.8707248,46.3403526 C32.7672606,46.4548059 32.619979,46.5200442 32.4837091,46.5797888 C32.3474392,46.5310317 32.1783636,46.4820457 32.1347756,46.3298229 C32.0531055,46.0739054 32.3201394,45.8726965 32.2875631,45.6225016 C32.1783636,45.4103052 31.987494,45.2578535 31.8239243,45.0893783 C30.4990782,43.767214 29.1744615,42.4455075 27.8493859,41.1233432 C27.6151577,40.905882 27.4187823,40.6449285 27.1407366,40.4817182 C26.862691,40.4270095 26.6119453,40.7806701 26.3449113,40.5902199 C26.1159596,40.4434908 26.1813416,40.11707 26.3554642,39.9538596" id="Fill-25" fill="#FFFFFF"></path>
                            <path d="M31.6440664,38.6049133 C31.5568904,38.3817294 31.7640481,38.120547 31.9985057,38.1585455 C32.1074758,38.1857854 32.1891459,38.2565175 32.2655397,38.3327434 C32.8379191,38.9095879 33.4160337,39.475216 33.9831367,40.0518317 C34.168271,40.2422819 34.4082345,40.4054923 34.4846282,40.6774333 C34.4137404,40.7971514 34.3373466,40.9603618 34.1740063,40.9766141 C33.9065136,41.003854 33.7103675,40.7916576 33.470404,40.7044442 C33.1432645,40.5412339 32.7454666,40.5412339 32.4183271,40.7101669 C32.2439751,40.535969 32.0748995,40.3617711 31.900318,40.1932959 C32.0202997,39.9376073 32.0748995,39.6439202 31.987494,39.3717503 C31.922112,39.0943155 31.7367483,38.8658668 31.6440664,38.6049133" id="Fill-26" fill="#FFFFFF"></path>
                            <path d="M35.1496895,40.0245918 C35.2641654,39.8506228 35.542211,39.8233829 35.6784809,39.9865933 C36.2673779,40.5796902 36.8672865,41.1670644 37.4504482,41.7654261 C36.7798811,42.4182676 36.1366138,43.1036139 35.4495291,43.740203 C35.2916946,43.5714989 35.1223896,43.4082885 34.9588199,43.2395844 C35.542211,42.5217334 35.6241106,41.4824976 35.2315891,40.6556872 C35.1604718,40.4597431 35.0079138,40.2203069 35.1496895,40.0245918" id="Fill-27" fill="#FFFFFF"></path>
                            <path d="M0.0714349429,42.1898189 C0.289374996,42.1028344 0.496762163,41.966635 0.736725633,41.9721288 C1.02555356,42.0266085 1.20564086,42.2822971 1.40706336,42.4725185 C4.14966687,45.1981089 6.88102927,47.9289641 9.61789752,50.6543256 C9.77045556,50.8232586 9.96683102,50.9917338 9.99413088,51.2311701 C9.98311917,51.4648837 9.85763158,51.6718152 9.75990267,51.8785178 C6.52658992,51.8730241 3.29924184,51.8730241 0.0714349429,51.8730241 C0.0714349429,48.647044 0.0659290889,45.4155701 0.0714349429,42.1898189" id="Fill-28" fill="#F96302"></path>
                            <path d="M25.4506689,42.0428609 C26.4210756,41.9613702 27.386206,42.3093081 28.1875371,42.8371666 C28.8145163,43.2560656 29.3979074,43.740203 29.8447992,44.3440585 C30.3793258,45.0566446 30.7062359,45.9271763 30.7119712,46.8247189 C30.7280299,47.8474734 30.3247261,48.8809865 29.5942828,49.6043312 C29.4249778,49.4411208 29.2614081,49.2781393 29.0980677,49.1094352 C29.1960261,48.9247076 29.3105019,48.7287636 29.2779256,48.5110735 C29.2235553,48.1846527 28.99988,47.9179766 28.7762047,47.6950216 C27.5497757,46.4710582 26.3228879,45.2470949 25.0962295,44.0229026 C24.8454838,43.7782015 24.5619323,43.5115254 24.1912048,43.4845144 C23.9895529,43.4627683 23.8094656,43.5660051 23.6406194,43.6639771 C23.4823261,43.4897792 23.264386,43.3593025 23.1661983,43.1418413 C23.7658776,42.5269983 24.5837263,42.0971117 25.4506689,42.0428609" id="Fill-29" fill="#FFFFFF"></path>
                            <path d="M47.4862436,48.8001824 C47.4862436,47.8241249 48.2797748,47.1042138 49.2176053,47.1042138 C50.1464887,47.1042138 50.9397905,47.8241249 50.9397905,48.8001824 C50.9397905,49.7853963 50.1464887,50.5053074 49.2176053,50.5053074 C48.2797748,50.5053074 47.4862436,49.7853963 47.4862436,48.8001824 L47.4862436,48.8001824 Z M49.2176053,50.2216922 C49.9884248,50.2216922 50.5970511,49.6189812 50.5970511,48.8001824 C50.5970511,47.9948892 49.9884248,47.3876001 49.2176053,47.3876001 C48.4373799,47.3876001 47.8287536,47.9948892 47.8287536,48.8001824 C47.8287536,49.6189812 48.4373799,50.2216922 49.2176053,50.2216922 L49.2176053,50.2216922 Z M48.8567424,49.7853963 L48.5591969,49.7853963 L48.5591969,47.8241249 L49.3075342,47.8241249 C49.7720906,47.8241249 50.00196,47.9948892 50.00196,48.3817413 C50.00196,48.7328839 49.7810376,48.8857935 49.4924391,48.9217318 L50.0517421,49.7853963 L49.7177203,49.7853963 L49.1994818,48.9350084 L48.8567424,48.9350084 L48.8567424,49.7853963 L48.8567424,49.7853963 Z M49.213017,48.6832112 C49.4653687,48.6832112 49.6908793,48.6653565 49.6908793,48.3638865 C49.6908793,48.1210167 49.4699569,48.076151 49.2625697,48.076151 L48.8567424,48.076151 L48.8567424,48.6832112 L49.213017,48.6832112 L49.213017,48.6832112 Z" id="Fill-30" fill="#FFFFFF"></path>
                        </g>
                    </g>
                </g>
            </g>
        </g>
    </g>
</svg>