<?xml version="1.0" encoding="UTF-8"?>
<svg width="25px" height="26px" viewBox="0 0 25 26" version="1.1" xmlns="http://www.w3.org/2000/svg" xmlns:xlink="http://www.w3.org/1999/xlink">
    <!-- Generator: Sketch 49.1 (51147) - http://www.bohemiancoding.com/sketch -->
    <title>Group 11</title>
    <desc>Created with Sketch.</desc>
    <defs></defs>
    <g id="Symbols" stroke="none" stroke-width="1" fill="none" fill-rule="evenodd">
        <g id="header-v2-" transform="translate(-1263.000000, -61.000000)" fill="#FFFFFF" fill-rule="nonzero">
            <g id="Group-11" transform="translate(1263.000000, 61.000000)">
                <path d="M13,14 C9.13400675,14 6,10.8659932 6,7 C6,3.13400675 9.13400675,0 13,0 C16.8659932,0 20,3.13400675 20,7 C20,10.8659932 16.8659932,14 13,14 Z M13,12.0689655 C15.7995124,12.0689655 18.0689655,9.79951235 18.0689655,7 C18.0689655,4.20048765 15.7995124,1.93103448 13,1.93103448 C10.2004876,1.93103448 7.93103448,4.20048765 7.93103448,7 C7.93103448,9.79951235 10.2004876,12.0689655 13,12.0689655 Z" id="Oval-8"></path>
                <path d="M25,26 L0,26 C0,19.4069271 5.59644063,13 12.5,13 C19.4035594,13 25,19.4069271 25,26 Z M12.5,14.7685651 C6.93114719,14.7685651 2.09965066,20.3708726 1.63043478,24.6916401 C6.4765726,24.6916401 10.099761,24.6916401 12.5,24.6916401 C14.814627,24.6916401 18.4378154,24.6916401 23.3695652,24.6916401 C22.9003493,20.3708726 18.0688528,14.7685651 12.5,14.7685651 Z" id="Oval-8-Copy"></path>
            </g>
        </g>
    </g>
</svg>